<svg xmlns="http://www.w3.org/2000/svg" xmlns:xlink="http://www.w3.org/1999/xlink" width="500" zoomAndPan="magnify" viewBox="0 0 375 374.999991" height="500" preserveAspectRatio="xMidYMid meet" version="1.0"><defs><g/><clipPath id="3b5534bf21"><path d="M 136.066406 120.054688 L 203 120.054688 L 203 225.558594 L 136.066406 225.558594 Z M 136.066406 120.054688 " clip-rule="nonzero"/></clipPath><clipPath id="ec429375a1"><path d="M 130.363281 152 L 157 152 L 157 193 L 130.363281 193 Z M 130.363281 152 " clip-rule="nonzero"/></clipPath><clipPath id="f297a12e99"><path d="M 219.050781 136 L 244.363281 136 L 244.363281 176.222656 L 219.050781 176.222656 Z M 219.050781 136 " clip-rule="nonzero"/></clipPath><clipPath id="494a35cd8a"><path d="M 242 137 L 244.363281 137 L 244.363281 175.183594 L 242 175.183594 Z M 242 137 " clip-rule="nonzero"/></clipPath><clipPath id="f80fae5726"><path d="M 231.5 136 L 244.363281 136 L 244.363281 176.222656 L 231.5 176.222656 Z M 231.5 136 " clip-rule="nonzero"/></clipPath></defs><g clip-path="url(#3b5534bf21)"><path fill="#358c9c" d="M 159.730469 182.671875 L 140.355469 202.101562 C 135.003906 207.46875 135.003906 216.167969 140.355469 221.535156 C 145.703125 226.898438 154.378906 226.898438 159.730469 221.535156 L 198.488281 182.671875 C 203.839844 177.304688 203.839844 168.605469 198.488281 163.238281 L 159.730469 124.375 C 154.378906 119.007812 145.703125 119.007812 140.355469 124.375 C 135.003906 129.742188 135.003906 138.441406 140.355469 143.808594 L 159.730469 163.238281 C 165.085938 168.605469 165.085938 177.304688 159.730469 182.671875 " fill-opacity="1" fill-rule="nonzero"/></g><g clip-path="url(#ec429375a1)"><path fill="#358c9c" d="M 139.777344 176.644531 L 132.40625 184.03125 C 130.375 186.070312 130.375 189.378906 132.40625 191.417969 C 134.4375 193.457031 137.742188 193.457031 139.777344 191.417969 L 154.503906 176.644531 C 156.539062 174.605469 156.539062 171.296875 154.503906 169.257812 L 139.777344 154.484375 C 137.742188 152.445312 134.4375 152.445312 132.40625 154.484375 C 130.375 156.523438 130.375 159.832031 132.40625 161.871094 L 139.777344 169.257812 C 141.804688 171.296875 141.804688 174.605469 139.777344 176.644531 " fill-opacity="1" fill-rule="nonzero"/></g><path fill="#2c7380" d="M 136.09375 192.945312 C 135.734375 192.945312 135.375 192.910156 135.023438 192.835938 C 135.984375 192.632812 136.894531 192.167969 137.640625 191.417969 L 152.375 176.644531 C 154.402344 174.605469 154.402344 171.296875 152.375 169.257812 L 137.640625 154.484375 C 136.894531 153.742188 135.984375 153.269531 135.023438 153.070312 C 135.375 153 135.734375 152.960938 136.09375 152.960938 C 137.425781 152.960938 138.757812 153.46875 139.777344 154.484375 L 154.503906 169.257812 C 155.523438 170.277344 156.03125 171.617188 156.03125 172.953125 C 156.03125 174.289062 155.523438 175.625 154.503906 176.644531 L 139.777344 191.417969 C 138.757812 192.4375 137.425781 192.945312 136.09375 192.945312 " fill-opacity="1" fill-rule="nonzero"/><path fill="#2c7380" d="M 191.851562 189.328125 L 172.542969 169.964844 C 167.195312 164.597656 167.195312 155.898438 172.542969 150.53125 L 179.179688 143.875 L 198.488281 163.238281 C 201.167969 165.917969 202.503906 169.4375 202.503906 172.953125 C 202.503906 176.472656 201.167969 179.984375 198.488281 182.671875 L 191.851562 189.328125 " fill-opacity="1" fill-rule="nonzero"/><path fill="#f68716" d="M 215.523438 146.296875 L 234.902344 126.863281 C 240.257812 121.5 240.257812 112.796875 234.902344 107.433594 C 229.550781 102.066406 220.875 102.066406 215.523438 107.433594 L 176.765625 146.296875 C 171.417969 151.660156 171.417969 160.363281 176.765625 165.726562 L 215.523438 204.589844 C 220.875 209.957031 229.550781 209.957031 234.902344 204.589844 C 240.257812 199.226562 240.257812 190.523438 234.902344 185.160156 L 215.523438 165.726562 C 210.175781 160.363281 210.175781 151.660156 215.523438 146.296875 " fill-opacity="1" fill-rule="nonzero"/><g clip-path="url(#f297a12e99)"><path fill="#f68716" d="M 235.484375 152.320312 L 242.851562 144.933594 C 244.882812 142.894531 244.882812 139.585938 242.851562 137.546875 C 240.816406 135.507812 237.515625 135.507812 235.484375 137.546875 L 220.75 152.320312 C 218.714844 154.359375 218.714844 157.667969 220.75 159.707031 L 235.484375 174.480469 C 237.515625 176.519531 240.816406 176.519531 242.851562 174.480469 C 244.882812 172.441406 244.882812 169.132812 242.851562 167.09375 L 235.484375 159.707031 C 233.449219 157.667969 233.449219 154.359375 235.484375 152.320312 " fill-opacity="1" fill-rule="nonzero"/></g><g clip-path="url(#494a35cd8a)"><path fill="#d3d2d2" d="M 242.242188 175.003906 C 242.453125 174.84375 242.660156 174.671875 242.851562 174.480469 C 243.867188 173.460938 244.375 172.125 244.375 170.785156 C 244.375 172.125 243.867188 173.460938 242.851562 174.480469 C 242.660156 174.671875 242.453125 174.84375 242.242188 175.003906 M 242.851562 137.546875 C 242.671875 137.367188 242.480469 137.199219 242.28125 137.050781 C 242.480469 137.199219 242.671875 137.367188 242.851562 137.546875 " fill-opacity="1" fill-rule="nonzero"/></g><g clip-path="url(#f80fae5726)"><path fill="#cb6e11" d="M 239.171875 176.007812 C 238.808594 176.007812 238.453125 175.972656 238.101562 175.894531 C 239.058594 175.695312 239.96875 175.222656 240.714844 174.480469 C 242.75 172.441406 242.75 169.132812 240.714844 167.09375 L 233.347656 159.707031 C 231.3125 157.667969 231.3125 154.359375 233.347656 152.320312 L 240.714844 144.933594 C 242.75 142.894531 242.75 139.585938 240.714844 137.546875 C 239.96875 136.796875 239.058594 136.332031 238.101562 136.128906 C 238.453125 136.054688 238.808594 136.019531 239.171875 136.019531 C 240.265625 136.019531 241.363281 136.363281 242.28125 137.050781 C 242.480469 137.199219 242.671875 137.367188 242.851562 137.546875 C 243.867188 138.566406 244.375 139.902344 244.375 141.238281 C 244.375 142.578125 243.867188 143.914062 242.851562 144.933594 L 235.484375 152.320312 C 234.464844 153.339844 233.957031 154.675781 233.957031 156.011719 C 233.957031 157.351562 234.464844 158.6875 235.484375 159.707031 L 242.851562 167.09375 C 243.867188 168.113281 244.375 169.449219 244.375 170.785156 C 244.375 172.125 243.867188 173.460938 242.851562 174.480469 C 242.660156 174.671875 242.453125 174.84375 242.242188 175.003906 C 241.332031 175.675781 240.25 176.007812 239.171875 176.007812 " fill-opacity="1" fill-rule="nonzero"/></g><g fill="#373636" fill-opacity="1"><g transform="translate(90.979533, 264.058708)"><g><path d="M 16.15625 0.71875 C 13.394531 0.71875 10.957031 0.21875 8.84375 -0.78125 C 6.738281 -1.78125 5.09375 -3.210938 3.90625 -5.078125 C 2.71875 -6.941406 2.125 -9.164062 2.125 -11.75 L 10.046875 -11.75 C 10.046875 -9.988281 10.65625 -8.6875 11.875 -7.84375 C 13.101562 -7 14.507812 -6.578125 16.09375 -6.578125 C 17.09375 -6.578125 18.03125 -6.738281 18.90625 -7.0625 C 19.789062 -7.394531 20.519531 -7.878906 21.09375 -8.515625 C 21.664062 -9.148438 21.953125 -9.914062 21.953125 -10.8125 C 21.953125 -11.75 21.625 -12.484375 20.96875 -13.015625 C 20.3125 -13.554688 19.429688 -14 18.328125 -14.34375 C 17.222656 -14.6875 16.015625 -15.015625 14.703125 -15.328125 C 13.359375 -15.628906 11.976562 -16.003906 10.5625 -16.453125 C 9.144531 -16.910156 7.832031 -17.507812 6.625 -18.25 C 5.414062 -18.988281 4.445312 -19.988281 3.71875 -21.25 C 3 -22.507812 2.640625 -24.101562 2.640625 -26.03125 C 2.640625 -29.519531 3.820312 -32.203125 6.1875 -34.078125 C 8.550781 -35.960938 11.75 -36.90625 15.78125 -36.90625 C 19.925781 -36.90625 23.132812 -35.859375 25.40625 -33.765625 C 27.6875 -31.679688 28.828125 -28.847656 28.828125 -25.265625 L 21.0625 -25.265625 C 21.0625 -26.816406 20.507812 -27.960938 19.40625 -28.703125 C 18.300781 -29.441406 17.023438 -29.8125 15.578125 -29.8125 C 14.304688 -29.8125 13.132812 -29.535156 12.0625 -28.984375 C 10.988281 -28.429688 10.453125 -27.570312 10.453125 -26.40625 C 10.453125 -25.539062 10.769531 -24.859375 11.40625 -24.359375 C 12.050781 -23.859375 12.898438 -23.441406 13.953125 -23.109375 C 15.003906 -22.785156 16.164062 -22.46875 17.4375 -22.15625 C 18.820312 -21.8125 20.238281 -21.40625 21.6875 -20.9375 C 23.132812 -20.46875 24.476562 -19.835938 25.71875 -19.046875 C 26.96875 -18.253906 27.976562 -17.203125 28.75 -15.890625 C 29.53125 -14.578125 29.921875 -12.921875 29.921875 -10.921875 C 29.921875 -8.296875 29.289062 -6.117188 28.03125 -4.390625 C 26.769531 -2.671875 25.101562 -1.390625 23.03125 -0.546875 C 20.96875 0.296875 18.675781 0.71875 16.15625 0.71875 Z M 16.15625 0.71875 "/></g></g></g><g fill="#373636" fill-opacity="1"><g transform="translate(120.069368, 264.058708)"><g><path d="M 16.921875 0.78125 C 14.023438 0.78125 11.4375 0.132812 9.15625 -1.15625 C 6.882812 -2.457031 5.09375 -4.21875 3.78125 -6.4375 C 2.46875 -8.664062 1.8125 -11.179688 1.8125 -13.984375 C 1.8125 -16.804688 2.46875 -19.332031 3.78125 -21.5625 C 5.09375 -23.789062 6.882812 -25.539062 9.15625 -26.8125 C 11.4375 -28.09375 14.023438 -28.734375 16.921875 -28.734375 C 19.785156 -28.734375 22.359375 -28.09375 24.640625 -26.8125 C 26.921875 -25.539062 28.710938 -23.789062 30.015625 -21.5625 C 31.328125 -19.332031 31.984375 -16.804688 31.984375 -13.984375 C 31.984375 -11.179688 31.328125 -8.664062 30.015625 -6.4375 C 28.710938 -4.21875 26.921875 -2.457031 24.640625 -1.15625 C 22.359375 0.132812 19.785156 0.78125 16.921875 0.78125 Z M 16.921875 -6.3125 C 19.097656 -6.3125 20.875 -7.019531 22.25 -8.4375 C 23.632812 -9.851562 24.328125 -11.703125 24.328125 -13.984375 C 24.328125 -16.253906 23.632812 -18.097656 22.25 -19.515625 C 20.875 -20.929688 19.097656 -21.640625 16.921875 -21.640625 C 14.710938 -21.640625 12.914062 -20.929688 11.53125 -19.515625 C 10.15625 -18.097656 9.46875 -16.253906 9.46875 -13.984375 C 9.46875 -11.703125 10.15625 -9.851562 11.53125 -8.4375 C 12.914062 -7.019531 14.710938 -6.3125 16.921875 -6.3125 Z M 16.921875 -6.3125 "/></g></g></g><g fill="#373636" fill-opacity="1"><g transform="translate(150.919099, 264.058708)"><g><path d="M 16.609375 0.78125 C 13.816406 0.78125 11.296875 0.125 9.046875 -1.1875 C 6.804688 -2.5 5.039062 -4.273438 3.75 -6.515625 C 2.457031 -8.765625 1.8125 -11.285156 1.8125 -14.078125 C 1.8125 -16.867188 2.457031 -19.367188 3.75 -21.578125 C 5.039062 -23.796875 6.804688 -25.539062 9.046875 -26.8125 C 11.296875 -28.09375 13.835938 -28.734375 16.671875 -28.734375 C 19.085938 -28.734375 21.285156 -28.257812 23.265625 -27.3125 C 25.253906 -26.363281 26.910156 -25.023438 28.234375 -23.296875 C 29.566406 -21.566406 30.457031 -19.566406 30.90625 -17.296875 L 23.390625 -17.296875 C 22.773438 -18.671875 21.867188 -19.738281 20.671875 -20.5 C 19.484375 -21.257812 18.128906 -21.640625 16.609375 -21.640625 C 15.265625 -21.640625 14.050781 -21.300781 12.96875 -20.625 C 11.882812 -19.957031 11.03125 -19.050781 10.40625 -17.90625 C 9.78125 -16.769531 9.46875 -15.476562 9.46875 -14.03125 C 9.46875 -12.582031 9.78125 -11.28125 10.40625 -10.125 C 11.03125 -8.96875 11.882812 -8.039062 12.96875 -7.34375 C 14.050781 -6.65625 15.265625 -6.3125 16.609375 -6.3125 C 18.171875 -6.3125 19.53125 -6.71875 20.6875 -7.53125 C 21.84375 -8.34375 22.742188 -9.507812 23.390625 -11.03125 L 31 -11.03125 C 30.550781 -8.675781 29.65625 -6.609375 28.3125 -4.828125 C 26.96875 -3.054688 25.296875 -1.675781 23.296875 -0.6875 C 21.296875 0.289062 19.066406 0.78125 16.609375 0.78125 Z M 16.609375 0.78125 "/></g></g></g><g fill="#373636" fill-opacity="1"><g transform="translate(180.319501, 264.058708)"><g><path d="M 3.625 -31.6875 L 3.625 -38.71875 L 11.1875 -38.71875 L 11.1875 -31.6875 Z M 3.625 0 L 3.625 -27.953125 L 11.1875 -27.953125 L 11.1875 0 Z M 3.625 0 "/></g></g></g><g fill="#373636" fill-opacity="1"><g transform="translate(192.17265, 264.058708)"><g><path d="M 26.453125 -28 L 32.09375 -28 L 32.09375 -0.046875 L 26.140625 -0.046875 L 25.515625 -2.53125 C 24.304688 -1.5 22.929688 -0.6875 21.390625 -0.09375 C 19.859375 0.488281 18.21875 0.78125 16.46875 0.78125 C 13.664062 0.78125 11.160156 0.132812 8.953125 -1.15625 C 6.742188 -2.457031 5 -4.21875 3.71875 -6.4375 C 2.445312 -8.664062 1.8125 -11.195312 1.8125 -14.03125 C 1.8125 -16.820312 2.445312 -19.332031 3.71875 -21.5625 C 5 -23.789062 6.742188 -25.539062 8.953125 -26.8125 C 11.160156 -28.09375 13.664062 -28.734375 16.46875 -28.734375 C 18.257812 -28.734375 19.929688 -28.429688 21.484375 -27.828125 C 23.035156 -27.222656 24.414062 -26.382812 25.625 -25.3125 Z M 17.078125 -6.359375 C 18.523438 -6.359375 19.828125 -6.6875 20.984375 -7.34375 C 22.140625 -8 23.046875 -8.90625 23.703125 -10.0625 C 24.359375 -11.21875 24.6875 -12.539062 24.6875 -14.03125 C 24.6875 -15.476562 24.359375 -16.78125 23.703125 -17.9375 C 23.046875 -19.09375 22.140625 -20.003906 20.984375 -20.671875 C 19.828125 -21.347656 18.523438 -21.6875 17.078125 -21.6875 C 15.597656 -21.6875 14.285156 -21.347656 13.140625 -20.671875 C 12.003906 -20.003906 11.109375 -19.09375 10.453125 -17.9375 C 9.796875 -16.78125 9.46875 -15.476562 9.46875 -14.03125 C 9.46875 -12.539062 9.796875 -11.226562 10.453125 -10.09375 C 11.109375 -8.957031 12.003906 -8.050781 13.140625 -7.375 C 14.285156 -6.695312 15.597656 -6.359375 17.078125 -6.359375 Z M 17.078125 -6.359375 "/></g></g></g><g fill="#373636" fill-opacity="1"><g transform="translate(224.937574, 264.058708)"><g><path d="M 18.84375 -28.734375 C 21.707031 -28.734375 24.242188 -28.09375 26.453125 -26.8125 C 28.660156 -25.539062 30.394531 -23.789062 31.65625 -21.5625 C 32.914062 -19.332031 33.546875 -16.804688 33.546875 -13.984375 C 33.546875 -11.148438 32.914062 -8.617188 31.65625 -6.390625 C 30.394531 -4.160156 28.660156 -2.40625 26.453125 -1.125 C 24.242188 0.144531 21.707031 0.78125 18.84375 0.78125 C 17.15625 0.78125 15.566406 0.515625 14.078125 -0.015625 C 12.597656 -0.554688 11.269531 -1.328125 10.09375 -2.328125 L 9.21875 0 L 3.625 0 L 3.625 -38.046875 L 11.1875 -38.046875 L 11.1875 -26.453125 C 12.25 -27.179688 13.425781 -27.742188 14.71875 -28.140625 C 16.019531 -28.535156 17.394531 -28.734375 18.84375 -28.734375 Z M 18.21875 -6.359375 C 19.707031 -6.359375 21.019531 -6.6875 22.15625 -7.34375 C 23.289062 -8 24.1875 -8.90625 24.84375 -10.0625 C 25.5 -11.21875 25.828125 -12.523438 25.828125 -13.984375 C 25.828125 -15.429688 25.5 -16.734375 24.84375 -17.890625 C 24.1875 -19.046875 23.289062 -19.957031 22.15625 -20.625 C 21.019531 -21.300781 19.707031 -21.640625 18.21875 -21.640625 C 16.769531 -21.640625 15.46875 -21.300781 14.3125 -20.625 C 13.15625 -19.957031 12.25 -19.046875 11.59375 -17.890625 C 10.9375 -16.734375 10.609375 -15.429688 10.609375 -13.984375 C 10.609375 -12.523438 10.9375 -11.226562 11.59375 -10.09375 C 12.25 -8.957031 13.15625 -8.050781 14.3125 -7.375 C 15.46875 -6.695312 16.769531 -6.359375 18.21875 -6.359375 Z M 18.21875 -6.359375 "/></g></g></g><g fill="#373636" fill-opacity="1"><g transform="translate(257.340168, 264.058708)"><g><path d="M 3.625 0 L 3.625 -38.046875 L 11.1875 -38.046875 L 11.1875 0 Z M 3.625 0 "/></g></g></g><g fill="#373636" fill-opacity="1"><g transform="translate(269.193316, 264.058708)"><g><path d="M 3.625 -31.6875 L 3.625 -38.71875 L 11.1875 -38.71875 L 11.1875 -31.6875 Z M 3.625 0 L 3.625 -27.953125 L 11.1875 -27.953125 L 11.1875 0 Z M 3.625 0 "/></g></g></g></svg>